<?xml version="1.0" encoding="utf-8"?>
<!-- Generator: Adobe Illustrator 23.0.3, SVG Export Plug-In . SVG Version: 6.00 Build 0)  -->
<svg version="1.1" id="Layer_1" xmlns="http://www.w3.org/2000/svg" xmlns:xlink="http://www.w3.org/1999/xlink" x="0px" y="0px"
	 viewBox="0 0 1904.6 350.4" style="enable-background:new 0 0 1904.6 350.4;" xml:space="preserve">
<style type="text/css">
	.st0{fill:none;stroke:#FFFFFF;stroke-width:2;stroke-miterlimit:10;}
</style>
<title>Asset 1</title>
<g>
	<g id="Layer_1-2">
		<path class="st0" d="M250.4,346.6V117.4l-79,167.1h-38.5L52,117.4v229.2H0V3.8h52l100.2,213.4L250.4,3.8h52v342.9H250.4z"/>
		<path class="st0" d="M516.7,346.6V3.8h52v342.9H516.7z"/>
		<path class="st0" d="M1465.5,314.4c-21.7,21.7-53,32.3-88.6,32.3h-120.4V3.8h120.4c35.7,0,67,10.6,88.6,32.3
			c37.1,37.1,34.7,87.2,34.7,136.8S1502.6,277.3,1465.5,314.4z M1429.8,73.6c-14.4-15.9-33.7-23.1-58.3-23.1h-63.1v249.5h63.1
			c24.6,0,43.8-7.2,58.3-23.1c17.8-19.7,18.3-56.8,18.3-104S1447.7,93.3,1429.8,73.6z"/>
		<path class="st0" d="M1758.3,4.1c-13.3,3.4-22.7,15.3-22.8,29.1l0,0c0,12,4.7,20.8,11.9,27.8c9.8-9.4,25.4-14.8,44.7-14.8
			c27,0,50.3,9.7,71.4,29.6l3.7,3.5l28.1-34l-2.9-3C1866,15.3,1829.8,0,1792.1,0C1780.7,0,1769.3,1.4,1758.3,4.1z"/>
		<path class="st0" d="M1834,160l-46.9-20.3l-33.8-14.9c-40.3-17.4-55.4-38.3-63-65.9c-4.2,9.3-6.4,23.4-6.4,33.2
			c0,40,22.7,69.1,69.4,89l47.3,20.9c33.2,14.5,52,24.2,52,53.5c0,30.1-24.6,48.8-64,48.8c-31.4,0-63.3-14.3-87.4-39.3l-3.6-3.7
			l-31.3,35.8l3,3.1c31.1,32.4,73.2,50.3,118.5,50.3c68.8,0,116.8-40.4,116.8-98.2C1904.6,197.7,1868.9,175,1834,160z"/>
		<path class="st0" d="M961.5,0.9V213c-18.3-20.8-39.3-38.5-59.2-55.4C850.7,113.8,806.1,76,806.1,0.9h-52.5
			c0,94.5,59.4,144.8,111.7,189.1c51.6,43.7,96.2,81.5,96.2,156.6h52.5V0.9H961.5z"/>
		<path class="st0" d="M753.6,149.1v197.6h52.5V208.2C788.3,192.3,768.4,173.8,753.6,149.1z"/>
	</g>
</g>
</svg>
